<svg xmlns="http://www.w3.org/2000/svg" viewBox="0 0 200 200" width="100%" height="100%">

  <g id="logo-dt">

    <!-- Light Blue 'd' Letterframe -->

    <path d="M 100,28 

             L 82,34 

             V 70 

             H 56 

             A 38,38 0 0,0 18,108 

             A 38,38 0 0,0 56,146 

             H 100 

             Z 

             M 82,128 

             H 56 

             A 20,20 0 0,1 36,108 

             A 20,20 0 0,1 56,88 

             H 82 

             Z" 

          fill="#5bc0eb" />



    <!-- Dark Blue 't' Letterframe -->

    <path d="M 120,18 

             L 138,24 

             V 70 

             H 192 

             V 88 

             H 138 

             V 126 

             A 20,20 0 0,0 158,146 

             H 192 

             V 164 

             H 158 

             A 38,38 0 0,1 120,126 

             Z" 

          fill="#2a75c3" />

  </g>

</svg>

